<svg xmlns="http://www.w3.org/2000/svg" xmlns:xlink="http://www.w3.org/1999/xlink" width="251" zoomAndPan="magnify" viewBox="0 0 188.25 44.999999" height="60" preserveAspectRatio="xMidYMid meet" version="1.0"><defs><g/><clipPath id="a2c02b41eb"><path d="M 0 0.0898438 L 187 0.0898438 L 187 44.175781 L 0 44.175781 Z M 0 0.0898438 " clip-rule="nonzero"/></clipPath><clipPath id="c1df9420d1"><path d="M 13.445312 0.0898438 L 173.425781 0.0898438 C 180.851562 0.0898438 186.871094 6.109375 186.871094 13.535156 L 186.871094 30.730469 C 186.871094 38.15625 180.851562 44.175781 173.425781 44.175781 L 13.445312 44.175781 C 6.019531 44.175781 0 38.15625 0 30.730469 L 0 13.535156 C 0 6.109375 6.019531 0.0898438 13.445312 0.0898438 Z M 13.445312 0.0898438 " clip-rule="nonzero"/></clipPath><clipPath id="fb1c75b319"><path d="M 15.953125 13.066406 L 36.714844 13.066406 L 36.714844 31.523438 L 15.953125 31.523438 Z M 15.953125 13.066406 " clip-rule="nonzero"/></clipPath><clipPath id="548fa51049"><path d="M 145 0.0898438 L 148 0.0898438 L 148 44.910156 L 145 44.910156 Z M 145 0.0898438 " clip-rule="nonzero"/></clipPath><clipPath id="ecbf5eeff0"><path d="M 158.691406 17.273438 L 175.996094 17.273438 L 175.996094 27 L 158.691406 27 Z M 158.691406 17.273438 " clip-rule="nonzero"/></clipPath></defs><g clip-path="url(#a2c02b41eb)"><g clip-path="url(#c1df9420d1)"><path fill="#332219" d="M 0 0.0898438 L 186.851562 0.0898438 L 186.851562 44.175781 L 0 44.175781 Z M 0 0.0898438 " fill-opacity="1" fill-rule="nonzero"/></g></g><g clip-path="url(#fb1c75b319)"><path fill="#f4e8d9" d="M 36.679688 24.894531 L 36.679688 28.375 C 36.679688 28.757812 36.605469 29.125 36.460938 29.480469 C 36.3125 29.835938 36.101562 30.148438 35.832031 30.421875 C 35.558594 30.691406 35.246094 30.902344 34.890625 31.046875 C 34.539062 31.195312 34.167969 31.269531 33.785156 31.269531 L 18.847656 31.269531 C 18.464844 31.269531 18.097656 31.195312 17.742188 31.046875 C 17.386719 30.902344 17.074219 30.691406 16.800781 30.421875 C 16.53125 30.148438 16.320312 29.835938 16.175781 29.480469 C 16.027344 29.125 15.953125 28.757812 15.953125 28.375 L 15.953125 24.894531 C 15.953125 24.648438 16.039062 24.4375 16.214844 24.265625 C 16.390625 24.089844 16.601562 24.003906 16.847656 24.003906 C 17.09375 24.003906 17.304688 24.089844 17.476562 24.265625 C 17.652344 24.4375 17.738281 24.648438 17.738281 24.894531 L 17.738281 28.21875 C 17.738281 28.386719 17.773438 28.546875 17.835938 28.699219 C 17.902344 28.855469 17.992188 28.992188 18.109375 29.113281 C 18.230469 29.230469 18.367188 29.320312 18.523438 29.386719 C 18.675781 29.449219 18.835938 29.480469 19.003906 29.484375 L 33.628906 29.484375 C 33.796875 29.480469 33.957031 29.449219 34.113281 29.386719 C 34.265625 29.320312 34.402344 29.230469 34.523438 29.113281 C 34.640625 28.992188 34.734375 28.855469 34.796875 28.699219 C 34.859375 28.546875 34.894531 28.386719 34.894531 28.21875 L 34.894531 24.894531 C 34.894531 24.648438 34.980469 24.4375 35.15625 24.265625 C 35.328125 24.089844 35.539062 24.003906 35.789062 24.003906 C 36.035156 24.003906 36.246094 24.089844 36.417969 24.265625 C 36.59375 24.4375 36.679688 24.648438 36.679688 24.894531 Z M 23.441406 18.539062 L 25.140625 16.835938 C 25.195312 16.78125 25.261719 16.769531 25.335938 16.796875 C 25.410156 16.828125 25.445312 16.882812 25.445312 16.964844 L 25.445312 25.375 C 25.445312 25.621094 25.53125 25.832031 25.707031 26.007812 C 25.882812 26.183594 26.09375 26.269531 26.339844 26.269531 C 26.585938 26.269531 26.796875 26.183594 26.972656 26.007812 C 27.144531 25.832031 27.234375 25.621094 27.234375 25.375 L 27.234375 17.007812 C 27.234375 16.929688 27.269531 16.875 27.34375 16.84375 C 27.417969 16.8125 27.480469 16.824219 27.539062 16.882812 L 29.191406 18.539062 C 29.371094 18.707031 29.582031 18.789062 29.824219 18.789062 C 30.070312 18.789062 30.28125 18.707031 30.457031 18.539062 C 30.628906 18.363281 30.71875 18.152344 30.71875 17.90625 C 30.71875 17.660156 30.628906 17.449219 30.457031 17.273438 L 26.316406 13.132812 L 22.175781 17.273438 C 22.003906 17.449219 21.917969 17.660156 21.917969 17.90625 C 21.917969 18.152344 22.003906 18.363281 22.175781 18.539062 C 22.355469 18.707031 22.5625 18.789062 22.808594 18.789062 C 23.054688 18.789062 23.265625 18.707031 23.441406 18.539062 Z M 23.441406 18.539062 " fill-opacity="1" fill-rule="nonzero"/></g><g fill="#f4e8d9" fill-opacity="1"><g transform="translate(46.223437, 27.611849)"><g><path d="M 10.5625 -10.765625 L 10.5625 -4.453125 C 10.5625 -3.054688 10.144531 -1.953125 9.3125 -1.140625 C 8.488281 -0.328125 7.347656 0.078125 5.890625 0.078125 C 4.429688 0.078125 3.285156 -0.328125 2.453125 -1.140625 C 1.617188 -1.953125 1.203125 -3.054688 1.203125 -4.453125 L 1.203125 -10.765625 L 3.015625 -10.765625 L 3.015625 -4.453125 C 3.015625 -3.554688 3.269531 -2.847656 3.78125 -2.328125 C 4.300781 -1.804688 5.007812 -1.546875 5.90625 -1.546875 C 6.78125 -1.546875 7.472656 -1.800781 7.984375 -2.3125 C 8.492188 -2.832031 8.75 -3.546875 8.75 -4.453125 L 8.75 -10.765625 Z M 10.5625 -10.765625 "/></g></g></g><g fill="#f4e8d9" fill-opacity="1"><g transform="translate(57.200351, 27.611849)"><g><path d="M 6.015625 -8.234375 C 7.171875 -8.234375 8.109375 -7.847656 8.828125 -7.078125 C 9.554688 -6.304688 9.921875 -5.300781 9.921875 -4.0625 C 9.921875 -2.832031 9.566406 -1.835938 8.859375 -1.078125 C 8.148438 -0.316406 7.210938 0.0625 6.046875 0.0625 C 4.734375 0.0625 3.769531 -0.429688 3.15625 -1.421875 L 3.15625 2.984375 L 1.390625 2.984375 L 1.390625 -8.171875 L 3.15625 -8.171875 L 3.15625 -6.765625 C 3.769531 -7.742188 4.722656 -8.234375 6.015625 -8.234375 Z M 3.84375 -2.1875 C 4.3125 -1.6875 4.910156 -1.4375 5.640625 -1.4375 C 6.367188 -1.4375 6.96875 -1.6875 7.4375 -2.1875 C 7.90625 -2.6875 8.140625 -3.332031 8.140625 -4.125 C 8.140625 -4.894531 7.90625 -5.523438 7.4375 -6.015625 C 6.96875 -6.515625 6.367188 -6.765625 5.640625 -6.765625 C 4.910156 -6.765625 4.3125 -6.515625 3.84375 -6.015625 C 3.382812 -5.523438 3.15625 -4.894531 3.15625 -4.125 C 3.15625 -3.332031 3.382812 -2.6875 3.84375 -2.1875 Z M 3.84375 -2.1875 "/></g></g></g><g fill="#f4e8d9" fill-opacity="1"><g transform="translate(66.885834, 27.611849)"><g><path d="M 3.15625 0 L 1.390625 0 L 1.390625 -11.40625 L 3.15625 -11.40625 Z M 3.15625 0 "/></g></g></g><g fill="#f4e8d9" fill-opacity="1"><g transform="translate(70.652227, 27.611849)"><g><path d="M 4.8125 -8.234375 C 6.070312 -8.234375 7.097656 -7.851562 7.890625 -7.09375 C 8.679688 -6.332031 9.078125 -5.332031 9.078125 -4.09375 C 9.078125 -2.863281 8.679688 -1.863281 7.890625 -1.09375 C 7.097656 -0.320312 6.070312 0.0625 4.8125 0.0625 C 3.539062 0.0625 2.507812 -0.320312 1.71875 -1.09375 C 0.925781 -1.863281 0.53125 -2.863281 0.53125 -4.09375 C 0.53125 -5.332031 0.925781 -6.332031 1.71875 -7.09375 C 2.507812 -7.851562 3.539062 -8.234375 4.8125 -8.234375 Z M 4.8125 -6.71875 C 4.070312 -6.71875 3.46875 -6.472656 3 -5.984375 C 2.539062 -5.492188 2.3125 -4.859375 2.3125 -4.078125 C 2.3125 -3.285156 2.539062 -2.644531 3 -2.15625 C 3.46875 -1.664062 4.070312 -1.421875 4.8125 -1.421875 C 5.550781 -1.421875 6.148438 -1.664062 6.609375 -2.15625 C 7.066406 -2.644531 7.296875 -3.285156 7.296875 -4.078125 C 7.296875 -4.859375 7.0625 -5.492188 6.59375 -5.984375 C 6.132812 -6.472656 5.539062 -6.71875 4.8125 -6.71875 Z M 4.8125 -6.71875 "/></g></g></g><g fill="#f4e8d9" fill-opacity="1"><g transform="translate(79.492122, 27.611849)"><g><path d="M 6.21875 0 L 6.21875 -1 C 5.625 -0.28125 4.71875 0.078125 3.5 0.078125 C 2.632812 0.078125 1.9375 -0.160156 1.40625 -0.640625 C 0.882812 -1.117188 0.625 -1.722656 0.625 -2.453125 C 0.625 -3.203125 0.894531 -3.796875 1.4375 -4.234375 C 1.988281 -4.679688 2.75 -4.910156 3.71875 -4.921875 L 6.203125 -4.921875 L 6.203125 -5.171875 C 6.203125 -5.691406 6.035156 -6.09375 5.703125 -6.375 C 5.367188 -6.664062 4.882812 -6.8125 4.25 -6.8125 C 3.457031 -6.8125 2.648438 -6.535156 1.828125 -5.984375 L 1.109375 -7.203125 C 1.734375 -7.578125 2.289062 -7.84375 2.78125 -8 C 3.28125 -8.15625 3.894531 -8.234375 4.625 -8.234375 C 5.675781 -8.234375 6.488281 -7.976562 7.0625 -7.46875 C 7.632812 -6.96875 7.925781 -6.265625 7.9375 -5.359375 L 7.953125 0 Z M 3.875 -1.328125 C 4.5 -1.328125 5.03125 -1.472656 5.46875 -1.765625 C 5.90625 -2.054688 6.148438 -2.425781 6.203125 -2.875 L 6.203125 -3.625 L 3.984375 -3.625 C 3.398438 -3.625 2.972656 -3.539062 2.703125 -3.375 C 2.429688 -3.207031 2.296875 -2.925781 2.296875 -2.53125 C 2.296875 -2.164062 2.4375 -1.875 2.71875 -1.65625 C 3 -1.4375 3.382812 -1.328125 3.875 -1.328125 Z M 3.875 -1.328125 "/></g></g></g><g fill="#f4e8d9" fill-opacity="1"><g transform="translate(87.732417, 27.611849)"><g><path d="M 9.109375 -11.40625 L 9.109375 0 L 7.328125 0 L 7.328125 -1.40625 C 6.722656 -0.414062 5.765625 0.078125 4.453125 0.078125 C 3.285156 0.078125 2.335938 -0.304688 1.609375 -1.078125 C 0.890625 -1.859375 0.53125 -2.875 0.53125 -4.125 C 0.53125 -5.351562 0.890625 -6.347656 1.609375 -7.109375 C 2.328125 -7.867188 3.265625 -8.25 4.421875 -8.25 C 5.734375 -8.25 6.703125 -7.753906 7.328125 -6.765625 L 7.328125 -11.40625 Z M 3.015625 -2.140625 C 3.484375 -1.648438 4.085938 -1.40625 4.828125 -1.40625 C 5.566406 -1.40625 6.164062 -1.648438 6.625 -2.140625 C 7.09375 -2.640625 7.328125 -3.28125 7.328125 -4.0625 C 7.328125 -4.851562 7.09375 -5.5 6.625 -6 C 6.164062 -6.5 5.566406 -6.75 4.828125 -6.75 C 4.085938 -6.75 3.484375 -6.5 3.015625 -6 C 2.554688 -5.5 2.320312 -4.851562 2.3125 -4.0625 C 2.320312 -3.28125 2.554688 -2.640625 3.015625 -2.140625 Z M 3.015625 -2.140625 "/></g></g></g><g fill="#f4e8d9" fill-opacity="1"><g transform="translate(97.448641, 27.611849)"><g/></g></g><g fill="#f4e8d9" fill-opacity="1"><g transform="translate(100.646183, 27.611849)"><g><path d="M 1.421875 -10.765625 L 5.703125 -10.765625 C 7.054688 -10.765625 8.101562 -10.441406 8.84375 -9.796875 C 9.59375 -9.160156 9.96875 -8.257812 9.96875 -7.09375 C 9.96875 -5.875 9.59375 -4.925781 8.84375 -4.25 C 8.101562 -3.582031 7.054688 -3.25 5.703125 -3.25 L 3.234375 -3.25 L 3.234375 0 L 1.421875 0 Z M 3.234375 -9.125 L 3.234375 -4.875 L 5.625 -4.875 C 7.351562 -4.875 8.21875 -5.597656 8.21875 -7.046875 C 8.21875 -8.429688 7.351562 -9.125 5.625 -9.125 Z M 3.234375 -9.125 "/></g></g></g><g fill="#f4e8d9" fill-opacity="1"><g transform="translate(110.224042, 27.611849)"><g><path d="M 1.421875 -10.765625 L 5.828125 -10.765625 C 7.429688 -10.765625 8.757812 -10.253906 9.8125 -9.234375 C 10.863281 -8.222656 11.390625 -6.9375 11.390625 -5.375 C 11.390625 -3.820312 10.859375 -2.535156 9.796875 -1.515625 C 8.742188 -0.503906 7.40625 0 5.78125 0 L 1.421875 0 Z M 3.234375 -9.125 L 3.234375 -1.625 L 5.875 -1.625 C 6.925781 -1.625 7.800781 -1.972656 8.5 -2.671875 C 9.207031 -3.378906 9.5625 -4.273438 9.5625 -5.359375 C 9.5625 -6.453125 9.195312 -7.351562 8.46875 -8.0625 C 7.75 -8.769531 6.859375 -9.125 5.796875 -9.125 Z M 3.234375 -9.125 "/></g></g></g><g fill="#f4e8d9" fill-opacity="1"><g transform="translate(121.370084, 27.611849)"><g><path d="M 8.625 -9.125 L 3.234375 -9.125 L 3.234375 -6.03125 L 8.125 -6.03125 L 8.125 -4.40625 L 3.234375 -4.40625 L 3.234375 0 L 1.421875 0 L 1.421875 -10.765625 L 8.640625 -10.765625 Z M 8.625 -9.125 "/></g></g></g><g clip-path="url(#548fa51049)"><path stroke-linecap="butt" transform="matrix(0, 0.576762, -0.576762, 0, 147.617559, 0.089481)" fill="none" stroke-linejoin="miter" d="M 0.000628891 1.998598 L 76.437573 1.998598 " stroke="#f4e8d9" stroke-width="4" stroke-opacity="1" stroke-miterlimit="4"/></g><g clip-path="url(#ecbf5eeff0)"><path fill="#f4e8d9" d="M 168.046875 26.605469 L 175.667969 18.984375 C 176.039062 18.613281 176.039062 18.007812 175.667969 17.636719 C 175.296875 17.273438 174.703125 17.273438 174.332031 17.636719 L 167.371094 24.597656 L 160.410156 17.636719 C 160.039062 17.273438 159.4375 17.273438 159.0625 17.636719 C 158.691406 18.007812 158.691406 18.613281 159.0625 18.984375 L 166.699219 26.617188 C 167.070312 26.988281 167.671875 26.988281 168.046875 26.605469 Z M 168.046875 26.605469 " fill-opacity="1" fill-rule="evenodd"/></g></svg>