<svg xmlns="http://www.w3.org/2000/svg" xmlns:xlink="http://www.w3.org/1999/xlink" width="203" zoomAndPan="magnify" viewBox="0 0 152.25 35.25" height="47" preserveAspectRatio="xMidYMid meet" version="1.0"><defs><g/><clipPath id="c1fafb2b41"><path d="M 5.609375 5.132812 L 67.730469 5.132812 L 67.730469 29.5625 L 5.609375 29.5625 Z M 5.609375 5.132812 " clip-rule="nonzero"/></clipPath><clipPath id="ebcd957b53"><path d="M 25.964844 5.132812 L 61.804688 5.132812 C 63.910156 5.132812 65.851562 6.261719 66.894531 8.089844 C 67.9375 9.921875 67.917969 12.167969 66.84375 13.980469 L 62.855469 20.714844 C 59.609375 26.199219 53.710938 29.5625 47.335938 29.5625 L 11.5 29.5625 C 9.394531 29.5625 7.453125 28.433594 6.410156 26.605469 C 5.367188 24.777344 5.382812 22.527344 6.457031 20.714844 L 10.445312 13.980469 C 13.695312 8.496094 19.59375 5.132812 25.964844 5.132812 Z M 25.964844 5.132812 " clip-rule="nonzero"/></clipPath><clipPath id="24c54c7a28"><path d="M 13 0 L 21 0 L 21 13 L 13 13 Z M 13 0 " clip-rule="nonzero"/></clipPath><clipPath id="27a94ab454"><path d="M 12.71875 1.324219 L 16.882812 -0.113281 L 21.195312 12.382812 L 17.027344 13.820312 Z M 12.71875 1.324219 " clip-rule="nonzero"/></clipPath><clipPath id="6318b37c54"><path d="M 17.015625 13.789062 L 21.183594 12.351562 L 16.871094 -0.144531 L 12.707031 1.292969 Z M 17.015625 13.789062 " clip-rule="nonzero"/></clipPath><clipPath id="9521ab0236"><path d="M 14 6 L 17 6 L 17 10 L 14 10 Z M 14 6 " clip-rule="nonzero"/></clipPath><clipPath id="862f02564a"><path d="M 14.714844 6.777344 L 15.324219 6.582031 L 16.3125 9.675781 L 15.703125 9.871094 Z M 14.714844 6.777344 " clip-rule="nonzero"/></clipPath></defs><g clip-path="url(#c1fafb2b41)"><g clip-path="url(#ebcd957b53)"><path fill="#f4e8d9" d="M 1.21875 5.132812 L 72.121094 5.132812 L 72.121094 29.5625 L 1.21875 29.5625 Z M 1.21875 5.132812 " fill-opacity="1" fill-rule="nonzero"/></g></g><g clip-path="url(#24c54c7a28)"><g clip-path="url(#27a94ab454)"><g clip-path="url(#6318b37c54)"><path fill="#8d7d72" d="M 18.4375 5.734375 C 18.984375 7.316406 19.589844 8.890625 20.078125 10.492188 C 20.460938 11.738281 19.023438 13.085938 17.800781 12.371094 C 17.441406 12.160156 17.273438 11.8125 17.136719 11.4375 C 16.894531 10.765625 16.671875 10.085938 16.4375 9.410156 C 15.898438 7.847656 15.308594 6.292969 14.820312 4.714844 C 14.347656 3.191406 16.605469 2.523438 17.214844 3.941406 C 17.847656 5.421875 18.277344 7.023438 18.804688 8.546875 C 18.882812 8.78125 18.523438 8.90625 18.441406 8.671875 L 17.15625 4.949219 C 17.039062 4.609375 16.960938 4.171875 16.75 3.867188 C 16.210938 3.085938 14.914062 3.683594 15.179688 4.589844 C 15.542969 5.816406 16.019531 7.023438 16.433594 8.230469 C 16.804688 9.300781 17.109375 10.429688 17.554688 11.472656 C 17.96875 12.445312 19.441406 12.308594 19.746094 11.289062 C 19.84375 10.964844 19.773438 10.777344 19.675781 10.488281 L 16.925781 2.523438 C 16.734375 1.960938 16.507812 1.34375 15.914062 1.101562 C 15.238281 0.824219 14.332031 1.199219 14.003906 1.828125 C 13.535156 2.722656 14.347656 4.21875 14.636719 5.054688 L 16.039062 9.117188 C 16.121094 9.351562 15.757812 9.476562 15.675781 9.242188 L 14.140625 4.792969 C 13.828125 3.882812 13.183594 2.679688 13.628906 1.71875 C 13.914062 1.105469 14.609375 0.683594 15.277344 0.632812 C 16.140625 0.566406 16.78125 1.132812 17.105469 1.890625 C 17.636719 3.128906 18 4.460938 18.4375 5.734375 Z M 18.4375 5.734375 " fill-opacity="1" fill-rule="nonzero"/></g></g></g><g fill="#f4e8d9" fill-opacity="1"><g transform="translate(71.298884, 25.65949)"><g><path d="M 5.953125 -10.640625 C 7.773438 -10.640625 9.144531 -10.078125 10.0625 -8.953125 C 10.976562 -7.835938 11.378906 -6.304688 11.265625 -4.359375 L 3.859375 -4.359375 C 4.035156 -3.734375 4.335938 -3.25 4.765625 -2.90625 C 5.191406 -2.570312 5.71875 -2.40625 6.34375 -2.40625 C 7.300781 -2.40625 8.140625 -2.757812 8.859375 -3.46875 L 10.640625 -1.734375 C 9.503906 -0.503906 7.972656 0.109375 6.046875 0.109375 C 4.347656 0.109375 2.992188 -0.375 1.984375 -1.34375 C 0.972656 -2.320312 0.46875 -3.617188 0.46875 -5.234375 C 0.46875 -6.859375 0.972656 -8.164062 1.984375 -9.15625 C 2.992188 -10.144531 4.316406 -10.640625 5.953125 -10.640625 Z M 3.8125 -6.171875 L 8.015625 -6.171875 C 8.015625 -6.804688 7.828125 -7.316406 7.453125 -7.703125 C 7.085938 -8.097656 6.597656 -8.296875 5.984375 -8.296875 C 5.410156 -8.296875 4.929688 -8.101562 4.546875 -7.71875 C 4.160156 -7.332031 3.914062 -6.816406 3.8125 -6.171875 Z M 3.8125 -6.171875 "/></g></g></g><g fill="#f4e8d9" fill-opacity="1"><g transform="translate(81.934435, 25.65949)"><g><path d="M 5.9375 -7.5 L 7.8125 -10.515625 L 11.5 -10.515625 L 8.15625 -5.40625 L 11.734375 0 L 7.84375 0 L 5.9375 -3.296875 L 3.78125 0 L 0.078125 0 L 3.671875 -5.390625 L 0.3125 -10.515625 L 4.171875 -10.515625 Z M 5.9375 -7.5 "/></g></g></g><g fill="#f4e8d9" fill-opacity="1"><g transform="translate(92.648041, 25.65949)"><g><path d="M 7.46875 -2.90625 L 8.140625 -0.5625 C 7.316406 -0.0820312 6.378906 0.15625 5.328125 0.15625 C 4.285156 0.15625 3.441406 -0.128906 2.796875 -0.703125 C 2.148438 -1.285156 1.828125 -2.113281 1.828125 -3.1875 L 1.828125 -7.828125 L 0.375 -7.828125 L 0.375 -10.03125 L 1.828125 -10.03125 L 1.828125 -12.953125 L 5.1875 -12.953125 L 5.1875 -10.046875 L 7.9375 -10.046875 L 7.9375 -7.828125 L 5.1875 -7.828125 L 5.1875 -3.703125 C 5.1875 -3.304688 5.265625 -3.007812 5.421875 -2.8125 C 5.585938 -2.625 5.835938 -2.539062 6.171875 -2.5625 C 6.484375 -2.5625 6.914062 -2.675781 7.46875 -2.90625 Z M 7.46875 -2.90625 "/></g></g></g><g fill="#f4e8d9" fill-opacity="1"><g transform="translate(100.025331, 25.65949)"><g/></g></g><g fill="#f4e8d9" fill-opacity="1"><g transform="translate(61.912454, 25.65949)"><g><path d="M 11.8125 -10.875 L 7.6875 -10.875 L 7.6875 0 L 4.21875 0 L 4.21875 -10.875 L 0.140625 -10.875 L 0.140625 -13.6875 L 11.8125 -13.6875 Z M 11.8125 -10.875 "/></g></g></g><g fill="#332219" fill-opacity="1"><g transform="translate(11.021852, 24.406331)"><g><path d="M 6.609375 -13.8125 C 8.660156 -13.8125 10.457031 -13.304688 12 -12.296875 L 10.6875 -9.578125 C 9.976562 -9.992188 9.210938 -10.332031 8.390625 -10.59375 C 7.566406 -10.863281 6.878906 -11 6.328125 -11 C 5.328125 -11 4.828125 -10.671875 4.828125 -10.015625 C 4.828125 -9.585938 5.070312 -9.242188 5.5625 -8.984375 C 6.050781 -8.722656 6.648438 -8.492188 7.359375 -8.296875 C 8.078125 -8.109375 8.789062 -7.878906 9.5 -7.609375 C 10.207031 -7.347656 10.804688 -6.914062 11.296875 -6.3125 C 11.796875 -5.71875 12.046875 -4.96875 12.046875 -4.0625 C 12.046875 -2.75 11.53125 -1.722656 10.5 -0.984375 C 9.46875 -0.253906 8.160156 0.109375 6.578125 0.109375 C 5.441406 0.109375 4.320312 -0.0820312 3.21875 -0.46875 C 2.113281 -0.851562 1.148438 -1.382812 0.328125 -2.0625 L 1.671875 -4.75 C 2.367188 -4.144531 3.179688 -3.648438 4.109375 -3.265625 C 5.046875 -2.878906 5.878906 -2.6875 6.609375 -2.6875 C 7.171875 -2.6875 7.609375 -2.785156 7.921875 -2.984375 C 8.234375 -3.191406 8.390625 -3.492188 8.390625 -3.890625 C 8.390625 -4.265625 8.207031 -4.578125 7.84375 -4.828125 C 7.488281 -5.078125 7.046875 -5.265625 6.515625 -5.390625 C 5.984375 -5.515625 5.40625 -5.679688 4.78125 -5.890625 C 4.15625 -6.097656 3.578125 -6.328125 3.046875 -6.578125 C 2.515625 -6.828125 2.066406 -7.21875 1.703125 -7.75 C 1.347656 -8.289062 1.171875 -8.941406 1.171875 -9.703125 C 1.171875 -10.953125 1.664062 -11.945312 2.65625 -12.6875 C 3.65625 -13.4375 4.972656 -13.8125 6.609375 -13.8125 Z M 6.609375 -13.8125 "/></g></g></g><g fill="#332219" fill-opacity="1"><g transform="translate(22.47703, 24.406331)"><g><path d="M 15.390625 -10.671875 C 16.554688 -10.671875 17.476562 -10.300781 18.15625 -9.5625 C 18.84375 -8.832031 19.1875 -7.859375 19.1875 -6.640625 L 19.1875 0 L 15.828125 0 L 15.828125 -5.703125 C 15.828125 -6.328125 15.660156 -6.816406 15.328125 -7.171875 C 15.003906 -7.523438 14.566406 -7.703125 14.015625 -7.703125 C 13.390625 -7.691406 12.890625 -7.453125 12.515625 -6.984375 C 12.148438 -6.523438 11.96875 -5.929688 11.96875 -5.203125 L 11.96875 0 L 8.59375 0 L 8.59375 -5.703125 C 8.59375 -6.328125 8.429688 -6.816406 8.109375 -7.171875 C 7.785156 -7.523438 7.347656 -7.703125 6.796875 -7.703125 C 6.148438 -7.691406 5.640625 -7.453125 5.265625 -6.984375 C 4.890625 -6.515625 4.703125 -5.921875 4.703125 -5.203125 L 4.703125 0 L 1.34375 0 L 1.34375 -10.515625 L 4.703125 -10.515625 L 4.703125 -8.78125 C 5.421875 -10.019531 6.578125 -10.648438 8.171875 -10.671875 C 9.023438 -10.671875 9.757812 -10.457031 10.375 -10.03125 C 10.988281 -9.613281 11.425781 -9.035156 11.6875 -8.296875 C 12.375 -9.859375 13.609375 -10.648438 15.390625 -10.671875 Z M 15.390625 -10.671875 "/></g></g></g><g fill="#332219" fill-opacity="1"><g transform="translate(41.601593, 24.406331)"><g><path d="M 6.0625 -10.671875 C 7.507812 -10.671875 8.632812 -10.335938 9.4375 -9.671875 C 10.238281 -9.003906 10.644531 -8.070312 10.65625 -6.875 L 10.65625 0 L 7.359375 0 L 7.359375 -1.203125 C 6.671875 -0.296875 5.597656 0.15625 4.140625 0.15625 C 3.035156 0.15625 2.15625 -0.144531 1.5 -0.75 C 0.851562 -1.363281 0.53125 -2.160156 0.53125 -3.140625 C 0.53125 -4.140625 0.875 -4.914062 1.5625 -5.46875 C 2.257812 -6.019531 3.257812 -6.304688 4.5625 -6.328125 L 7.34375 -6.328125 L 7.34375 -6.484375 C 7.34375 -7.003906 7.164062 -7.410156 6.8125 -7.703125 C 6.46875 -7.992188 5.957031 -8.140625 5.28125 -8.140625 C 4.332031 -8.140625 3.285156 -7.847656 2.140625 -7.265625 L 1.1875 -9.484375 C 2.894531 -10.273438 4.519531 -10.671875 6.0625 -10.671875 Z M 5.171875 -2.125 C 5.703125 -2.125 6.171875 -2.253906 6.578125 -2.515625 C 6.984375 -2.785156 7.238281 -3.140625 7.34375 -3.578125 L 7.34375 -4.515625 L 5.203125 -4.515625 C 4.191406 -4.515625 3.6875 -4.132812 3.6875 -3.375 C 3.6875 -2.988281 3.816406 -2.679688 4.078125 -2.453125 C 4.335938 -2.234375 4.703125 -2.125 5.171875 -2.125 Z M 5.171875 -2.125 "/></g></g></g><g fill="#332219" fill-opacity="1"><g transform="translate(52.198111, 24.406331)"><g><path d="M 4.71875 -10.515625 L 4.71875 -8.75 C 5.457031 -10.007812 6.597656 -10.648438 8.140625 -10.671875 L 8.140625 -7.625 C 7.171875 -7.71875 6.378906 -7.554688 5.765625 -7.140625 C 5.160156 -6.734375 4.8125 -6.15625 4.71875 -5.40625 L 4.71875 0 L 1.34375 0 L 1.34375 -10.515625 Z M 4.71875 -10.515625 "/></g></g></g><g fill="#332219" fill-opacity="1"><g transform="translate(59.418542, 24.406331)"><g><path d="M 11.8125 -10.875 L 7.6875 -10.875 L 7.6875 0 L 4.21875 0 L 4.21875 -10.875 L 0.140625 -10.875 L 0.140625 -13.6875 L 11.8125 -13.6875 Z M 11.8125 -10.875 "/></g></g></g><g fill="#f4e8d9" fill-opacity="1"><g transform="translate(100.966585, 25.65949)"><g/></g></g><g fill="#f4e8d9" fill-opacity="1"><g transform="translate(104.385856, 25.65949)"><g><path d="M 1.359375 -13.65625 L 7.3125 -13.65625 C 9.0625 -13.65625 10.414062 -13.242188 11.375 -12.421875 C 12.34375 -11.597656 12.828125 -10.425781 12.828125 -8.90625 C 12.828125 -7.300781 12.34375 -6.054688 11.375 -5.171875 C 10.414062 -4.285156 9.0625 -3.84375 7.3125 -3.84375 L 4.84375 -3.84375 L 4.84375 0 L 1.359375 0 Z M 4.84375 -10.921875 L 4.84375 -6.578125 L 7.140625 -6.578125 C 7.910156 -6.578125 8.503906 -6.765625 8.921875 -7.140625 C 9.335938 -7.515625 9.546875 -8.0625 9.546875 -8.78125 C 9.546875 -9.476562 9.335938 -10.007812 8.921875 -10.375 C 8.503906 -10.738281 7.910156 -10.921875 7.140625 -10.921875 Z M 4.84375 -10.921875 "/></g></g></g><g fill="#f4e8d9" fill-opacity="1"><g transform="translate(116.54357, 25.65949)"><g><path d="M 1.359375 -13.65625 L 7.234375 -13.65625 C 9.378906 -13.65625 11.125 -13.023438 12.46875 -11.765625 C 13.820312 -10.503906 14.5 -8.859375 14.5 -6.828125 C 14.5 -4.816406 13.816406 -3.175781 12.453125 -1.90625 C 11.085938 -0.632812 9.304688 0 7.109375 0 L 1.359375 0 Z M 4.84375 -10.890625 L 4.84375 -2.765625 L 7.3125 -2.765625 C 8.382812 -2.765625 9.257812 -3.140625 9.9375 -3.890625 C 10.625 -4.640625 10.96875 -5.613281 10.96875 -6.8125 C 10.96875 -8.007812 10.609375 -8.988281 9.890625 -9.75 C 9.179688 -10.507812 8.269531 -10.890625 7.15625 -10.890625 Z M 4.84375 -10.890625 "/></g></g></g><g fill="#f4e8d9" fill-opacity="1"><g transform="translate(130.399088, 25.65949)"><g><path d="M 11.5 -10.921875 L 4.84375 -10.921875 L 4.84375 -7.765625 L 10.96875 -7.765625 L 10.96875 -5.03125 L 4.84375 -5.03125 L 4.84375 0 L 1.359375 0 L 1.359375 -13.65625 L 11.5 -13.65625 Z M 11.5 -10.921875 "/></g></g></g><g fill="#f4e8d9" fill-opacity="1"><g transform="translate(141.073663, 25.65949)"><g><path d="M 1.1875 -2.65625 C 1.488281 -2.957031 1.878906 -3.109375 2.359375 -3.109375 C 2.835938 -3.109375 3.226562 -2.957031 3.53125 -2.65625 C 3.84375 -2.351562 4 -1.960938 4 -1.484375 C 4 -1.003906 3.84375 -0.609375 3.53125 -0.296875 C 3.226562 0.00390625 2.835938 0.15625 2.359375 0.15625 C 1.878906 0.15625 1.488281 0.00390625 1.1875 -0.296875 C 0.882812 -0.609375 0.734375 -1.003906 0.734375 -1.484375 C 0.734375 -1.960938 0.882812 -2.351562 1.1875 -2.65625 Z M 1.1875 -2.65625 "/></g></g></g><g clip-path="url(#9521ab0236)"><g clip-path="url(#862f02564a)"><path fill="#332219" d="M 14.714844 6.777344 L 15.324219 6.582031 L 16.3125 9.679688 L 15.703125 9.871094 Z M 14.714844 6.777344 " fill-opacity="1" fill-rule="nonzero"/></g></g><path stroke-linecap="butt" transform="matrix(0.45234, -0.578529, 0.578529, 0.45234, 14.746482, 6.665112)" fill="none" stroke-linejoin="miter" d="M 0.000209537 0.498816 L 0.606684 0.49727 " stroke="#332219" stroke-width="1" stroke-opacity="1" stroke-miterlimit="4"/></svg>