<svg xmlns="http://www.w3.org/2000/svg" xmlns:xlink="http://www.w3.org/1999/xlink" width="651" zoomAndPan="magnify" viewBox="0 0 488.25 112.499997" height="150" preserveAspectRatio="xMidYMid meet" version="1.0"><defs><g/><clipPath id="f2e2347e09"><path d="M 5.078125 16.792969 L 228.277344 16.792969 L 228.277344 96.707031 L 5.078125 96.707031 Z M 5.078125 16.792969 " clip-rule="nonzero"/></clipPath><clipPath id="c7fcf27f66"><path d="M 58.484375 16.792969 L 222.074219 16.792969 C 224.214844 16.792969 226.1875 17.941406 227.25 19.800781 C 228.308594 21.660156 228.289062 23.945312 227.199219 25.789062 L 190.527344 87.710938 C 187.226562 93.289062 181.226562 96.707031 174.75 96.707031 L 11.160156 96.707031 C 9.019531 96.707031 7.042969 95.558594 5.984375 93.699219 C 4.921875 91.839844 4.941406 89.554688 6.035156 87.710938 L 42.703125 25.789062 C 46.007812 20.210938 52.003906 16.792969 58.484375 16.792969 Z M 58.484375 16.792969 " clip-rule="nonzero"/></clipPath><clipPath id="9cc02faa97"><path d="M 40 2 L 63 2 L 63 42 L 40 42 Z M 40 2 " clip-rule="nonzero"/></clipPath><clipPath id="31a54189bc"><path d="M 38.324219 4.335938 L 50.945312 -0.015625 L 65.011719 40.761719 L 52.390625 45.117188 Z M 38.324219 4.335938 " clip-rule="nonzero"/></clipPath><clipPath id="5d922d5503"><path d="M 52.386719 45.109375 L 65.011719 40.753906 L 50.941406 -0.0234375 L 38.320312 4.328125 Z M 52.386719 45.109375 " clip-rule="nonzero"/></clipPath><clipPath id="c01c4eb3c5"><path d="M 44 21 L 51 21 L 51 33 L 44 33 Z M 44 21 " clip-rule="nonzero"/></clipPath><clipPath id="ba57a0d7bd"><path d="M 44.855469 22.167969 L 46.84375 21.53125 L 50.082031 31.660156 L 48.09375 32.296875 Z M 44.855469 22.167969 " clip-rule="nonzero"/></clipPath></defs><g clip-path="url(#f2e2347e09)"><g clip-path="url(#c7fcf27f66)"><path fill="#332219" d="M 0.707031 16.792969 L 232.648438 16.792969 L 232.648438 96.707031 L 0.707031 96.707031 Z M 0.707031 16.792969 " fill-opacity="1" fill-rule="nonzero"/></g></g><g clip-path="url(#9cc02faa97)"><g clip-path="url(#31a54189bc)"><g clip-path="url(#5d922d5503)"><path fill="#8d7d72" d="M 57.042969 18.753906 C 58.832031 23.933594 60.808594 29.085938 62.414062 34.324219 C 63.667969 38.414062 58.953125 42.820312 54.960938 40.476562 C 53.777344 39.785156 53.226562 38.648438 52.785156 37.421875 C 51.992188 35.21875 51.257812 32.996094 50.492188 30.78125 C 48.730469 25.671875 46.792969 20.589844 45.195312 15.421875 C 43.652344 10.4375 51.042969 8.242188 53.035156 12.882812 C 55.113281 17.730469 56.519531 22.976562 58.238281 27.96875 C 58.5 28.730469 57.320312 29.136719 57.054688 28.375 L 52.851562 16.1875 C 52.464844 15.074219 52.207031 13.640625 51.519531 12.648438 C 49.746094 10.09375 45.503906 12.046875 46.378906 15.015625 C 47.5625 19.03125 49.121094 22.96875 50.488281 26.925781 C 51.699219 30.433594 52.695312 34.125 54.148438 37.539062 C 55.503906 40.714844 60.332031 40.269531 61.328125 36.933594 C 61.644531 35.875 61.414062 35.265625 61.089844 34.316406 L 52.09375 8.246094 C 51.460938 6.40625 50.726562 4.390625 48.777344 3.59375 C 46.566406 2.6875 43.605469 3.910156 42.527344 5.972656 C 40.996094 8.902344 43.65625 13.789062 44.601562 16.53125 L 49.191406 29.828125 C 49.453125 30.589844 48.269531 31 48.007812 30.238281 L 42.980469 15.671875 C 41.957031 12.699219 39.847656 8.761719 41.304688 5.617188 C 42.234375 3.605469 44.507812 2.226562 46.695312 2.054688 C 49.519531 1.835938 51.613281 3.691406 52.679688 6.175781 C 54.417969 10.226562 55.609375 14.59375 57.042969 18.753906 Z M 57.042969 18.753906 " fill-opacity="1" fill-rule="nonzero"/></g></g></g><g fill="#332219" fill-opacity="1"><g transform="translate(229.956564, 83.938617)"><g><path d="M 19.46875 -34.796875 C 25.425781 -34.796875 29.90625 -32.960938 32.90625 -29.296875 C 35.90625 -25.640625 37.21875 -20.617188 36.84375 -14.234375 L 12.640625 -14.234375 C 13.191406 -12.191406 14.171875 -10.617188 15.578125 -9.515625 C 16.984375 -8.410156 18.707031 -7.859375 20.75 -7.859375 C 23.894531 -7.859375 26.640625 -9.023438 28.984375 -11.359375 L 34.796875 -5.6875 C 31.085938 -1.632812 26.085938 0.390625 19.796875 0.390625 C 14.210938 0.390625 9.769531 -1.203125 6.46875 -4.390625 C 3.175781 -7.585938 1.53125 -11.828125 1.53125 -17.109375 C 1.53125 -22.429688 3.175781 -26.707031 6.46875 -29.9375 C 9.769531 -33.175781 14.101562 -34.796875 19.46875 -34.796875 Z M 12.453125 -20.171875 L 26.234375 -20.171875 C 26.234375 -22.253906 25.625 -23.9375 24.40625 -25.21875 C 23.195312 -26.5 21.59375 -27.140625 19.59375 -27.140625 C 17.726562 -27.140625 16.15625 -26.507812 14.875 -25.25 C 13.59375 -23.988281 12.785156 -22.296875 12.453125 -20.171875 Z M 12.453125 -20.171875 "/></g></g></g><g fill="#332219" fill-opacity="1"><g transform="translate(264.748112, 83.938617)"><g><path d="M 19.40625 -24.515625 L 25.53125 -34.40625 L 37.609375 -34.40625 L 26.6875 -17.6875 L 38.375 0 L 25.671875 0 L 19.40625 -10.796875 L 12.390625 0 L 0.25 0 L 12 -17.625 L 1.015625 -34.40625 L 13.65625 -34.40625 Z M 19.40625 -24.515625 "/></g></g></g><g fill="#332219" fill-opacity="1"><g transform="translate(299.795003, 83.938617)"><g><path d="M 24.453125 -9.515625 L 26.625 -1.84375 C 23.9375 -0.269531 20.867188 0.515625 17.421875 0.515625 C 14.023438 0.515625 11.269531 -0.429688 9.15625 -2.328125 C 7.050781 -4.222656 6 -6.914062 6 -10.40625 L 6 -25.59375 L 1.21875 -25.59375 L 1.21875 -32.8125 L 6 -32.8125 L 6 -42.390625 L 16.984375 -42.390625 L 16.984375 -32.875 L 25.984375 -32.875 L 25.984375 -25.59375 L 16.984375 -25.59375 L 16.984375 -12.125 C 16.984375 -10.8125 17.25 -9.84375 17.78125 -9.21875 C 18.3125 -8.601562 19.109375 -8.316406 20.171875 -8.359375 C 21.191406 -8.359375 22.617188 -8.742188 24.453125 -9.515625 Z M 24.453125 -9.515625 "/></g></g></g><g fill="#332219" fill-opacity="1"><g transform="translate(323.927966, 83.938617)"><g/></g></g><g fill="#44312b" fill-opacity="1"><g transform="translate(199.251189, 83.938617)"><g><path d="M 38.625 -35.5625 L 25.15625 -35.5625 L 25.15625 0 L 13.796875 0 L 13.796875 -35.5625 L 0.453125 -35.5625 L 0.453125 -44.75 L 38.625 -44.75 Z M 38.625 -35.5625 "/></g></g></g><g fill="#f4e8d9" fill-opacity="1"><g transform="translate(32.77527, 79.83922)"><g><path d="M 21.640625 -45.203125 C 28.328125 -45.203125 34.203125 -43.539062 39.265625 -40.21875 L 34.984375 -31.34375 C 32.640625 -32.707031 30.128906 -33.828125 27.453125 -34.703125 C 24.773438 -35.578125 22.519531 -36.015625 20.6875 -36.015625 C 17.40625 -36.015625 15.765625 -34.925781 15.765625 -32.75 C 15.765625 -31.34375 16.570312 -30.210938 18.1875 -29.359375 C 19.8125 -28.515625 21.78125 -27.78125 24.09375 -27.15625 C 26.414062 -26.539062 28.738281 -25.796875 31.0625 -24.921875 C 33.382812 -24.054688 35.351562 -22.644531 36.96875 -20.6875 C 38.582031 -18.726562 39.390625 -16.257812 39.390625 -13.28125 C 39.390625 -8.976562 37.707031 -5.625 34.34375 -3.21875 C 30.976562 -0.8125 26.703125 0.390625 21.515625 0.390625 C 17.804688 0.390625 14.144531 -0.25 10.53125 -1.53125 C 6.914062 -2.8125 3.765625 -4.554688 1.078125 -6.765625 L 5.484375 -15.515625 C 7.742188 -13.554688 10.40625 -11.945312 13.46875 -10.6875 C 16.53125 -9.4375 19.253906 -8.8125 21.640625 -8.8125 C 23.472656 -8.8125 24.898438 -9.140625 25.921875 -9.796875 C 26.941406 -10.460938 27.453125 -11.429688 27.453125 -12.703125 C 27.453125 -13.941406 26.863281 -14.972656 25.6875 -15.796875 C 24.519531 -16.628906 23.0625 -17.25 21.3125 -17.65625 C 19.570312 -18.0625 17.679688 -18.601562 15.640625 -19.28125 C 13.597656 -19.957031 11.703125 -20.703125 9.953125 -21.515625 C 8.210938 -22.328125 6.753906 -23.613281 5.578125 -25.375 C 4.410156 -27.144531 3.828125 -29.265625 3.828125 -31.734375 C 3.828125 -35.816406 5.453125 -39.082031 8.703125 -41.53125 C 11.960938 -43.976562 16.273438 -45.203125 21.640625 -45.203125 Z M 21.640625 -45.203125 "/></g></g></g><g fill="#f4e8d9" fill-opacity="1"><g transform="translate(70.248028, 79.83922)"><g><path d="M 50.375 -34.921875 C 54.164062 -34.921875 57.175781 -33.71875 59.40625 -31.3125 C 61.644531 -28.90625 62.765625 -25.703125 62.765625 -21.703125 L 62.765625 0 L 51.78125 0 L 51.78125 -18.640625 C 51.78125 -20.679688 51.242188 -22.285156 50.171875 -23.453125 C 49.109375 -24.628906 47.664062 -25.21875 45.84375 -25.21875 C 43.800781 -25.175781 42.171875 -24.398438 40.953125 -22.890625 C 39.742188 -21.378906 39.140625 -19.429688 39.140625 -17.046875 L 39.140625 0 L 28.09375 0 L 28.09375 -18.640625 C 28.09375 -20.679688 27.570312 -22.285156 26.53125 -23.453125 C 25.488281 -24.628906 24.050781 -25.21875 22.21875 -25.21875 C 20.132812 -25.175781 18.472656 -24.390625 17.234375 -22.859375 C 16.003906 -21.328125 15.390625 -19.390625 15.390625 -17.046875 L 15.390625 0 L 4.40625 0 L 4.40625 -34.40625 L 15.390625 -34.40625 L 15.390625 -28.734375 C 17.722656 -32.773438 21.507812 -34.835938 26.75 -34.921875 C 29.519531 -34.921875 31.914062 -34.226562 33.9375 -32.84375 C 35.957031 -31.457031 37.394531 -29.554688 38.25 -27.140625 C 40.5 -32.242188 44.539062 -34.835938 50.375 -34.921875 Z M 50.375 -34.921875 "/></g></g></g><g fill="#f4e8d9" fill-opacity="1"><g transform="translate(132.809261, 79.83922)"><g><path d="M 19.859375 -34.921875 C 24.578125 -34.921875 28.242188 -33.820312 30.859375 -31.625 C 33.484375 -29.4375 34.816406 -26.382812 34.859375 -22.46875 L 34.859375 0 L 24.0625 0 L 24.0625 -3.953125 C 21.8125 -0.972656 18.300781 0.515625 13.53125 0.515625 C 9.914062 0.515625 7.039062 -0.484375 4.90625 -2.484375 C 2.78125 -4.484375 1.71875 -7.082031 1.71875 -10.28125 C 1.71875 -13.550781 2.859375 -16.09375 5.140625 -17.90625 C 7.421875 -19.71875 10.6875 -20.644531 14.9375 -20.6875 L 24 -20.6875 L 24 -21.203125 C 24 -22.898438 23.4375 -24.226562 22.3125 -25.1875 C 21.1875 -26.144531 19.515625 -26.625 17.296875 -26.625 C 14.191406 -26.625 10.765625 -25.664062 7.015625 -23.75 L 3.890625 -31.03125 C 9.472656 -33.625 14.796875 -34.921875 19.859375 -34.921875 Z M 16.921875 -6.953125 C 18.660156 -6.953125 20.191406 -7.390625 21.515625 -8.265625 C 22.835938 -9.140625 23.664062 -10.28125 24 -11.6875 L 24 -14.75 L 17.046875 -14.75 C 13.722656 -14.75 12.0625 -13.515625 12.0625 -11.046875 C 12.0625 -9.765625 12.488281 -8.757812 13.34375 -8.03125 C 14.195312 -7.3125 15.390625 -6.953125 16.921875 -6.953125 Z M 16.921875 -6.953125 "/></g></g></g><g fill="#f4e8d9" fill-opacity="1"><g transform="translate(167.473127, 79.83922)"><g><path d="M 15.453125 -34.40625 L 15.453125 -28.609375 C 17.878906 -32.734375 21.601562 -34.835938 26.625 -34.921875 L 26.625 -24.96875 C 23.46875 -25.257812 20.890625 -24.734375 18.890625 -23.390625 C 16.890625 -22.054688 15.742188 -20.15625 15.453125 -17.6875 L 15.453125 0 L 4.40625 0 L 4.40625 -34.40625 Z M 15.453125 -34.40625 "/></g></g></g><g fill="#f4e8d9" fill-opacity="1"><g transform="translate(191.092963, 79.83922)"><g><path d="M 38.625 -35.5625 L 25.15625 -35.5625 L 25.15625 0 L 13.796875 0 L 13.796875 -35.5625 L 0.453125 -35.5625 L 0.453125 -44.75 L 38.625 -44.75 Z M 38.625 -35.5625 "/></g></g></g><g fill="#332219" fill-opacity="1"><g transform="translate(327.007058, 83.938617)"><g/></g></g><g fill="#332219" fill-opacity="1"><g transform="translate(338.192349, 83.938617)"><g><path d="M 4.46875 -44.6875 L 23.9375 -44.6875 C 29.644531 -44.6875 34.070312 -43.332031 37.21875 -40.625 C 40.375 -37.925781 41.953125 -34.085938 41.953125 -29.109375 C 41.953125 -23.878906 40.375 -19.816406 37.21875 -16.921875 C 34.070312 -14.023438 29.644531 -12.578125 23.9375 -12.578125 L 15.828125 -12.578125 L 15.828125 0 L 4.46875 0 Z M 15.828125 -35.75 L 15.828125 -21.515625 L 23.359375 -21.515625 C 25.878906 -21.515625 27.816406 -22.128906 29.171875 -23.359375 C 30.535156 -24.597656 31.21875 -26.390625 31.21875 -28.734375 C 31.21875 -31.023438 30.535156 -32.765625 29.171875 -33.953125 C 27.816406 -35.148438 25.878906 -35.75 23.359375 -35.75 Z M 15.828125 -35.75 "/></g></g></g><g fill="#332219" fill-opacity="1"><g transform="translate(377.963277, 83.938617)"><g><path d="M 4.46875 -44.6875 L 23.6875 -44.6875 C 30.707031 -44.6875 36.421875 -42.625 40.828125 -38.5 C 45.234375 -34.375 47.4375 -28.988281 47.4375 -22.34375 C 47.4375 -15.75 45.203125 -10.375 40.734375 -6.21875 C 36.265625 -2.070312 30.429688 0 23.234375 0 L 4.46875 0 Z M 15.828125 -35.625 L 15.828125 -9.0625 L 23.9375 -9.0625 C 27.425781 -9.0625 30.285156 -10.285156 32.515625 -12.734375 C 34.753906 -15.179688 35.875 -18.363281 35.875 -22.28125 C 35.875 -26.195312 34.703125 -29.398438 32.359375 -31.890625 C 30.023438 -34.378906 27.050781 -35.625 23.4375 -35.625 Z M 15.828125 -35.625 "/></g></g></g><g fill="#332219" fill-opacity="1"><g transform="translate(423.288146, 83.938617)"><g><path d="M 37.609375 -35.75 L 15.828125 -35.75 L 15.828125 -25.40625 L 35.875 -25.40625 L 35.875 -16.46875 L 15.828125 -16.46875 L 15.828125 0 L 4.46875 0 L 4.46875 -44.6875 L 37.609375 -44.6875 Z M 37.609375 -35.75 "/></g></g></g><g fill="#332219" fill-opacity="1"><g transform="translate(458.207354, 83.938617)"><g><path d="M 3.890625 -8.6875 C 4.867188 -9.664062 6.144531 -10.15625 7.71875 -10.15625 C 9.300781 -10.15625 10.59375 -9.664062 11.59375 -8.6875 C 12.59375 -7.707031 13.09375 -6.425781 13.09375 -4.84375 C 13.09375 -3.269531 12.59375 -1.984375 11.59375 -0.984375 C 10.59375 0.015625 9.300781 0.515625 7.71875 0.515625 C 6.144531 0.515625 4.867188 0.015625 3.890625 -0.984375 C 2.910156 -1.984375 2.421875 -3.269531 2.421875 -4.84375 C 2.421875 -6.425781 2.910156 -7.707031 3.890625 -8.6875 Z M 3.890625 -8.6875 "/></g></g></g><g clip-path="url(#c01c4eb3c5)"><g clip-path="url(#ba57a0d7bd)"><path fill="#332219" d="M 44.855469 22.167969 L 46.84375 21.53125 L 50.085938 31.664062 L 48.09375 32.300781 Z M 44.855469 22.167969 " fill-opacity="1" fill-rule="nonzero"/></g></g><path stroke-linecap="butt" transform="matrix(0.316311, -0.404553, 0.404553, 0.316311, 45.303883, 22.078865)" fill="none" stroke-linejoin="miter" d="M -0.0027464 1.500774 L 2.836635 1.501538 " stroke="#332219" stroke-width="3" stroke-opacity="1" stroke-miterlimit="4"/></svg>