<svg xmlns="http://www.w3.org/2000/svg" xmlns:xlink="http://www.w3.org/1999/xlink" width="76" zoomAndPan="magnify" viewBox="0 0 56.879997 62.249996" height="83" preserveAspectRatio="xMidYMid meet" version="1.0"><defs><clipPath id="98d3ad69ea"><path d="M 9 0 L 56.480469 0 L 56.480469 60.855469 L 9 60.855469 Z M 9 0 " clip-rule="nonzero"/></clipPath><clipPath id="edaac743c2"><path d="M 0.277344 9 L 30 9 L 30 23 L 0.277344 23 Z M 0.277344 9 " clip-rule="nonzero"/></clipPath><clipPath id="6de419ba9f"><path d="M 9 0 L 56.480469 0 L 56.480469 60.855469 L 9 60.855469 Z M 9 0 " clip-rule="nonzero"/></clipPath><clipPath id="21472a16e0"><path d="M 0.277344 9 L 30 9 L 30 23 L 0.277344 23 Z M 0.277344 9 " clip-rule="nonzero"/></clipPath></defs><path fill="#332219" d="M 47.40625 21.453125 L 39.664062 21.453125 C 36.535156 21.453125 33.992188 18.90625 33.992188 15.78125 L 33.992188 8.917969 L 37.894531 8.917969 L 37.894531 15.78125 C 37.894531 16.753906 38.6875 17.550781 39.664062 17.550781 L 47.40625 17.550781 Z M 47.40625 21.453125 " fill-opacity="1" fill-rule="nonzero"/><g clip-path="url(#98d3ad69ea)"><path fill="#332219" d="M 54.40625 15.792969 L 40.5 1.960938 C 39.234375 0.695312 37.546875 0 35.757812 0 L 15.882812 0 C 12.304688 0 9.394531 2.910156 9.394531 6.484375 L 9.394531 7.980469 L 13.296875 7.980469 L 13.296875 6.484375 C 13.296875 5.0625 14.457031 3.902344 15.882812 3.902344 L 35.757812 3.902344 C 36.507812 3.902344 37.214844 4.195312 37.75 4.726562 L 51.652344 18.558594 C 52.179688 19.085938 52.484375 19.816406 52.484375 20.5625 L 52.484375 54.53125 C 52.484375 55.957031 51.324219 57.113281 49.898438 57.113281 L 15.882812 57.113281 C 14.457031 57.113281 13.296875 55.957031 13.296875 54.53125 L 13.296875 24.929688 L 9.394531 24.929688 L 9.394531 54.53125 C 9.394531 58.109375 12.304688 61.019531 15.882812 61.019531 L 49.898438 61.019531 C 53.476562 61.019531 56.386719 58.109375 56.386719 54.53125 L 56.386719 20.5625 C 56.386719 18.785156 55.664062 17.046875 54.40625 15.792969 Z M 54.40625 15.792969 " fill-opacity="1" fill-rule="nonzero"/></g><path fill="#332219" d="M 37.296875 51.5 L 29.414062 51.5 C 27.808594 51.5 26.5 50.195312 26.5 48.585938 L 26.5 38.273438 L 25.382812 38.273438 C 24.246094 38.273438 23.234375 37.632812 22.75 36.605469 C 22.261719 35.578125 22.40625 34.394531 23.128906 33.515625 L 31.101562 23.769531 C 31.65625 23.09375 32.476562 22.703125 33.355469 22.703125 C 34.230469 22.703125 35.054688 23.09375 35.609375 23.773438 L 43.582031 33.515625 C 44.300781 34.394531 44.445312 35.582031 43.957031 36.609375 C 43.472656 37.632812 42.464844 38.273438 41.328125 38.273438 L 40.207031 38.273438 L 40.207031 48.589844 C 40.207031 50.195312 38.902344 51.5 37.296875 51.5 Z M 29.625 48.378906 L 37.085938 48.378906 L 37.085938 35.148438 L 40.882812 35.148438 L 33.355469 25.949219 L 25.828125 35.148438 L 29.625 35.148438 Z M 41.164062 35.492188 Z M 41.164062 35.492188 " fill-opacity="1" fill-rule="nonzero"/><path fill="#332219" d="M 10.328125 14.117188 L 7.988281 14.117188 L 7.988281 15.988281 L 10.328125 15.988281 L 10.328125 15.523438 L 10.796875 15.523438 L 10.796875 14.585938 L 10.328125 14.585938 Z M 10.328125 14.117188 " fill-opacity="1" fill-rule="nonzero"/><path fill="#332219" d="M 15.945312 14.117188 L 13.605469 14.117188 L 13.605469 18.796875 L 15.945312 18.796875 L 15.945312 18.328125 L 16.410156 18.328125 L 16.410156 14.585938 L 15.945312 14.585938 Z M 15.945312 14.117188 " fill-opacity="1" fill-rule="nonzero"/><g clip-path="url(#edaac743c2)"><path fill="#332219" d="M 26.667969 9.933594 L 3.347656 9.933594 C 1.8125 9.933594 0.566406 11.179688 0.566406 12.71875 L 0.566406 20.195312 C 0.566406 21.734375 1.8125 22.980469 3.347656 22.980469 L 26.667969 22.980469 C 28.203125 22.980469 29.449219 21.734375 29.449219 20.195312 L 29.449219 12.71875 C 29.453125 11.179688 28.203125 9.933594 26.667969 9.933594 Z M 11.734375 15.988281 L 11.265625 15.988281 L 11.265625 16.457031 L 10.796875 16.457031 L 10.796875 16.925781 L 7.988281 16.925781 L 7.988281 19.730469 L 7.054688 19.730469 L 7.054688 13.183594 L 10.796875 13.183594 L 10.796875 13.648438 L 11.265625 13.648438 L 11.265625 14.117188 L 11.734375 14.117188 Z M 17.347656 18.796875 L 16.878906 18.796875 L 16.878906 19.265625 L 16.410156 19.265625 L 16.410156 19.734375 L 12.667969 19.734375 L 12.667969 13.183594 L 16.410156 13.183594 L 16.410156 13.652344 L 16.878906 13.652344 L 16.878906 14.121094 L 17.347656 14.121094 Z M 22.960938 14.117188 L 19.21875 14.117188 L 19.21875 15.988281 L 22.027344 15.988281 L 22.027344 16.925781 L 19.21875 16.925781 L 19.21875 19.730469 L 18.28125 19.730469 L 18.28125 13.179688 L 22.960938 13.179688 Z M 22.960938 14.117188 " fill-opacity="1" fill-rule="nonzero"/></g><path fill="#332219" d="M 47.40625 21.453125 L 39.664062 21.453125 C 36.535156 21.453125 33.992188 18.90625 33.992188 15.78125 L 33.992188 8.917969 L 37.894531 8.917969 L 37.894531 15.78125 C 37.894531 16.753906 38.6875 17.550781 39.664062 17.550781 L 47.40625 17.550781 Z M 47.40625 21.453125 " fill-opacity="1" fill-rule="nonzero"/><g clip-path="url(#6de419ba9f)"><path fill="#332219" d="M 54.40625 15.792969 L 40.5 1.960938 C 39.234375 0.695312 37.546875 0 35.757812 0 L 15.882812 0 C 12.304688 0 9.394531 2.910156 9.394531 6.484375 L 9.394531 7.980469 L 13.296875 7.980469 L 13.296875 6.484375 C 13.296875 5.0625 14.457031 3.902344 15.882812 3.902344 L 35.757812 3.902344 C 36.507812 3.902344 37.214844 4.195312 37.75 4.726562 L 51.652344 18.558594 C 52.179688 19.085938 52.484375 19.816406 52.484375 20.5625 L 52.484375 54.53125 C 52.484375 55.957031 51.324219 57.113281 49.898438 57.113281 L 15.882812 57.113281 C 14.457031 57.113281 13.296875 55.957031 13.296875 54.53125 L 13.296875 24.929688 L 9.394531 24.929688 L 9.394531 54.53125 C 9.394531 58.109375 12.304688 61.019531 15.882812 61.019531 L 49.898438 61.019531 C 53.476562 61.019531 56.386719 58.109375 56.386719 54.53125 L 56.386719 20.5625 C 56.386719 18.785156 55.664062 17.046875 54.40625 15.792969 Z M 54.40625 15.792969 " fill-opacity="1" fill-rule="nonzero"/></g><path fill="#332219" d="M 37.296875 51.5 L 29.414062 51.5 C 27.808594 51.5 26.5 50.195312 26.5 48.585938 L 26.5 38.273438 L 25.382812 38.273438 C 24.246094 38.273438 23.234375 37.632812 22.75 36.605469 C 22.261719 35.578125 22.40625 34.394531 23.128906 33.515625 L 31.101562 23.769531 C 31.65625 23.09375 32.476562 22.703125 33.355469 22.703125 C 34.230469 22.703125 35.054688 23.09375 35.609375 23.773438 L 43.582031 33.515625 C 44.300781 34.394531 44.445312 35.582031 43.957031 36.609375 C 43.472656 37.632812 42.464844 38.273438 41.328125 38.273438 L 40.207031 38.273438 L 40.207031 48.589844 C 40.207031 50.195312 38.902344 51.5 37.296875 51.5 Z M 29.625 48.378906 L 37.085938 48.378906 L 37.085938 35.148438 L 40.882812 35.148438 L 33.355469 25.949219 L 25.828125 35.148438 L 29.625 35.148438 Z M 41.164062 35.492188 Z M 41.164062 35.492188 " fill-opacity="1" fill-rule="nonzero"/><path fill="#332219" d="M 10.328125 14.117188 L 7.988281 14.117188 L 7.988281 15.988281 L 10.328125 15.988281 L 10.328125 15.523438 L 10.796875 15.523438 L 10.796875 14.585938 L 10.328125 14.585938 Z M 10.328125 14.117188 " fill-opacity="1" fill-rule="nonzero"/><path fill="#332219" d="M 15.945312 14.117188 L 13.605469 14.117188 L 13.605469 18.796875 L 15.945312 18.796875 L 15.945312 18.328125 L 16.410156 18.328125 L 16.410156 14.585938 L 15.945312 14.585938 Z M 15.945312 14.117188 " fill-opacity="1" fill-rule="nonzero"/><g clip-path="url(#21472a16e0)"><path fill="#332219" d="M 26.667969 9.933594 L 3.347656 9.933594 C 1.8125 9.933594 0.566406 11.179688 0.566406 12.71875 L 0.566406 20.195312 C 0.566406 21.734375 1.8125 22.980469 3.347656 22.980469 L 26.667969 22.980469 C 28.203125 22.980469 29.449219 21.734375 29.449219 20.195312 L 29.449219 12.71875 C 29.453125 11.179688 28.203125 9.933594 26.667969 9.933594 Z M 11.734375 15.988281 L 11.265625 15.988281 L 11.265625 16.457031 L 10.796875 16.457031 L 10.796875 16.925781 L 7.988281 16.925781 L 7.988281 19.730469 L 7.054688 19.730469 L 7.054688 13.183594 L 10.796875 13.183594 L 10.796875 13.648438 L 11.265625 13.648438 L 11.265625 14.117188 L 11.734375 14.117188 Z M 17.347656 18.796875 L 16.878906 18.796875 L 16.878906 19.265625 L 16.410156 19.265625 L 16.410156 19.734375 L 12.667969 19.734375 L 12.667969 13.183594 L 16.410156 13.183594 L 16.410156 13.652344 L 16.878906 13.652344 L 16.878906 14.121094 L 17.347656 14.121094 Z M 22.960938 14.117188 L 19.21875 14.117188 L 19.21875 15.988281 L 22.027344 15.988281 L 22.027344 16.925781 L 19.21875 16.925781 L 19.21875 19.730469 L 18.28125 19.730469 L 18.28125 13.179688 L 22.960938 13.179688 Z M 22.960938 14.117188 " fill-opacity="1" fill-rule="nonzero"/></g></svg>